# Blender 4.1.1
# www.blender.org
mtllib door.mtl
o Door_01_Window_A
v -0.000000 2.320000 0.674486
v -0.000000 0.000000 0.734486
v -0.000000 2.320000 0.734486
v -0.000000 -0.000000 0.674486
v 1.120000 2.320000 0.734486
v 1.120000 -0.000000 0.674487
v 1.120000 2.320000 0.674486
v 1.120000 0.000000 0.734486
v 0.954802 1.358914 0.674486
v 0.165198 1.358914 0.674486
v 0.165198 1.358914 0.734486
v 0.954802 1.358914 0.734486
v 0.165198 2.030301 0.734486
v 0.165198 2.030301 0.674486
v 0.954802 2.030301 0.674486
v 0.954802 2.030301 0.734486
v 0.165198 2.030301 0.704486
v 0.165198 1.358914 0.704486
v 0.954802 2.030301 0.704486
v 0.954802 1.358914 0.704486
vn -1.0000 -0.0000 -0.0000
vn 1.0000 -0.0000 -0.0000
vn -0.0000 -1.0000 -0.0000
vn -0.0000 1.0000 -0.0000
vn -0.0000 -0.0000 1.0000
vn -0.0000 -0.0000 -1.0000
vt 0.515625 1.000000
vt 0.554688 0.000000
vt 0.554688 1.000000
vt 0.515625 0.000000
vt 0.476562 1.000000
vt 0.476562 0.000000
vt 0.593750 0.476562
vt 0.593750 0.000000
vt 0.554688 0.476562
vt 0.554688 0.953125
vt 0.593750 0.953125
vt 0.625000 0.343750
vt 0.625000 0.000000
vt 0.593750 0.343750
vt 0.718750 0.289062
vt 0.718750 0.000000
vt 0.687500 0.289062
vt 0.687500 0.000000
vt 0.656250 0.000000
vt 0.656250 0.343750
vt 0.656250 0.289062
vt 0.406250 0.585693
vt 0.000000 0.000000
vt 0.406250 0.875122
vt 0.070312 0.585693
vt 0.000000 1.000000
vt 0.070312 0.875122
s 1
usemtl MI_Door_Wood_07_A
f 1/1/1 2/2/1 3/3/1
f 2/2/1 1/1/1 4/4/1
f 5/5/2 6/4/2 7/1/2
f 6/4/2 5/5/2 8/6/2
f 2/7/3 6/2/3 8/8/3
f 6/2/3 2/7/3 4/9/3
f 7/10/4 1/9/4 3/7/4
f 7/10/4 3/7/4 5/11/4
f 9/12/4 10/13/4 11/8/4
f 9/12/4 11/8/4 12/14/4
f 13/15/2 11/16/2 14/17/2
f 14/17/2 11/16/2 10/18/2
f 13/19/3 15/12/3 16/20/3
f 15/12/3 13/19/3 14/13/3
f 15/21/1 9/19/1 16/17/1
f 16/17/1 9/19/1 12/18/1
f 3/5/5 2/6/5 11/22/5
f 8/23/5 11/22/5 2/6/5
f 3/5/5 11/22/5 13/24/5
f 11/22/5 8/23/5 12/25/5
f 5/26/5 3/5/5 13/24/5
f 8/23/5 5/26/5 12/25/5
f 5/26/5 13/24/5 16/27/5
f 12/25/5 5/26/5 16/27/5
f 4/6/6 1/5/6 10/22/6
f 10/22/6 6/23/6 4/6/6
f 10/22/6 1/5/6 14/24/6
f 9/25/6 6/23/6 10/22/6
f 7/26/6 14/24/6 1/5/6
f 7/26/6 6/23/6 9/25/6
f 14/24/6 7/26/6 15/27/6
f 7/26/6 9/25/6 15/27/6
usemtl Glass_01
f 17/24/5 18/22/5 19/27/5
f 19/27/5 18/22/5 20/25/5
